<?xml version="1.0" encoding="UTF-8" standalone="no"?>
<!-- Created with Inkscape (http://www.inkscape.org/) -->
<svg
   xmlns:dc="http://purl.org/dc/elements/1.1/"
   xmlns:cc="http://creativecommons.org/ns#"
   xmlns:rdf="http://www.w3.org/1999/02/22-rdf-syntax-ns#"
   xmlns:svg="http://www.w3.org/2000/svg"
   xmlns="http://www.w3.org/2000/svg"
   xmlns:xlink="http://www.w3.org/1999/xlink"
   xmlns:sodipodi="http://sodipodi.sourceforge.net/DTD/sodipodi-0.dtd"
   xmlns:inkscape="http://www.inkscape.org/namespaces/inkscape"
   width="48px"
   height="48px"
   id="svg3406"
   sodipodi:version="0.32"
   inkscape:version="0.46"
   sodipodi:docname="calendar.svg"
   inkscape:output_extension="org.inkscape.output.svg.inkscape"
   inkscape:export-filename="/home/daz/Pictures/icons/lazer/png/calendar.png"
   inkscape:export-xdpi="90"
   inkscape:export-ydpi="90">
  <defs
     id="defs3408">
    <linearGradient
       inkscape:collect="always"
       id="linearGradient3967">
      <stop
         style="stop-color:#ffffff;stop-opacity:1;"
         offset="0"
         id="stop3969" />
      <stop
         style="stop-color:#ffffff;stop-opacity:0;"
         offset="1"
         id="stop3971" />
    </linearGradient>
    <linearGradient
       inkscape:collect="always"
       xlink:href="#linearGradient3967"
       id="linearGradient3973"
       x1="36.639923"
       y1="10.711333"
       x2="35.581474"
       y2="16.066296"
       gradientUnits="userSpaceOnUse" />
    <linearGradient
       id="linearGradient3167">
      <stop
         style="stop-color:#035b95;stop-opacity:1"
         offset="0"
         id="stop3169" />
      <stop
         style="stop-color:#62b1d7;stop-opacity:1;"
         offset="1"
         id="stop3171" />
    </linearGradient>
    <linearGradient
       inkscape:collect="always"
       xlink:href="#linearGradient3167"
       id="linearGradient3189"
       gradientUnits="userSpaceOnUse"
       x1="-10.292396"
       y1="461.78082"
       x2="-10.757737"
       y2="446.14532" />
    <linearGradient
       inkscape:collect="always"
       id="linearGradient3177">
      <stop
         style="stop-color:#00405b;stop-opacity:1"
         offset="0"
         id="stop3179" />
      <stop
         style="stop-color:#019bdb;stop-opacity:1"
         offset="1"
         id="stop3181" />
    </linearGradient>
    <linearGradient
       inkscape:collect="always"
       xlink:href="#linearGradient3177"
       id="linearGradient3187"
       gradientUnits="userSpaceOnUse"
       x1="-13.084444"
       y1="461.78082"
       x2="-13.084444"
       y2="455.85181" />
    <inkscape:perspective
       sodipodi:type="inkscape:persp3d"
       inkscape:vp_x="0 : 24 : 1"
       inkscape:vp_y="0 : 1000 : 0"
       inkscape:vp_z="48 : 24 : 1"
       inkscape:persp3d-origin="24 : 16 : 1"
       id="perspective3414" />
  </defs>
  <sodipodi:namedview
     id="base"
     pagecolor="#ffffff"
     bordercolor="#666666"
     borderopacity="1.0"
     inkscape:pageopacity="0.0"
     inkscape:pageshadow="2"
     inkscape:zoom="9.8994949"
     inkscape:cx="12.878634"
     inkscape:cy="24.156233"
     inkscape:current-layer="layer1"
     showgrid="true"
     inkscape:grid-bbox="true"
     inkscape:document-units="px"
     inkscape:window-width="1280"
     inkscape:window-height="749"
     inkscape:window-x="0"
     inkscape:window-y="26" />
  <metadata
     id="metadata3411">
    <rdf:RDF>
      <cc:Work
         rdf:about="">
        <dc:format>image/svg+xml</dc:format>
        <dc:type
           rdf:resource="http://purl.org/dc/dcmitype/StillImage" />
      </cc:Work>
    </rdf:RDF>
  </metadata>
  <g
     id="layer1"
     inkscape:label="Layer 1"
     inkscape:groupmode="layer">
    <path
       style="fill:#ff8f13;fill-opacity:1;stroke:none;stroke-width:1.50000000000000000;stroke-linecap:square;stroke-linejoin:miter;stroke-miterlimit:4;stroke-dasharray:none;stroke-opacity:1"
       d="M 2.0270602,2.9101272 L 2.0270602,46.314501 L 45.770909,46.314501 L 45.770909,2.9101272 L 2.0270602,2.9101272 z M 31.415943,6.3533792 C 31.7447,6.3533855 32.08341,6.3767367 32.385873,6.4503723 C 32.688325,6.5240202 32.931522,6.5967029 33.210314,6.7413513 L 33.210314,8.0022605 C 32.928893,7.8102702 32.659397,7.6552195 32.385873,7.5657919 C 32.112342,7.4763752 31.81539,7.4203071 31.512936,7.4203024 C 30.971136,7.4203071 30.562372,7.6066004 30.252027,7.953764 C 29.941677,8.3009384 29.76706,8.7984862 29.767062,9.4086592 C 29.767059,10.016206 29.941677,10.467891 30.252027,10.815058 C 30.562372,11.162228 30.971138,11.348521 31.512936,11.348519 C 31.815388,11.348521 32.112342,11.292453 32.385873,11.20303 C 32.659395,11.113609 32.928891,10.958558 33.210314,10.766561 L 33.210314,12.027471 C 32.931522,12.172125 32.688327,12.244806 32.385873,12.31845 C 32.08341,12.39209 31.744697,12.463939 31.415943,12.463939 C 30.434928,12.463938 29.612967,12.186553 29.039614,11.639499 C 28.466258,11.089815 28.215174,10.347595 28.215174,9.4086592 C 28.215174,8.4670991 28.466258,7.7248791 29.039614,7.1778199 C 29.612967,6.6281411 30.434925,6.3533855 31.415943,6.3533792 z M 8.0406271,6.4503723 L 9.9804873,6.4503723 L 11.33839,9.6026452 L 12.696292,6.4503723 L 14.587655,6.4503723 L 14.587655,12.31845 L 13.181257,12.31845 L 13.181257,8.050757 L 11.823355,11.20303 L 10.804928,11.20303 L 9.4470258,8.050757 L 9.4470258,12.31845 L 8.0406271,12.31845 L 8.0406271,6.4503723 z M 17.545942,6.4503723 L 19.388809,6.4503723 L 21.522656,12.31845 L 20.019264,12.31845 L 19.631292,11.251526 L 17.30346,11.251526 L 16.915488,12.31845 L 15.412096,12.31845 L 17.545942,6.4503723 z M 22.2986,6.4503723 L 24.674929,6.4503723 C 25.450797,6.4503785 25.963486,6.5779732 26.32381,6.8383443 C 26.686755,7.0987279 26.905762,7.4879275 26.905768,8.050757 C 26.905763,8.4400109 26.804149,8.7708347 26.614789,9.0206871 C 26.42805,9.2705473 26.120578,9.4357986 25.741852,9.5541487 C 25.949623,9.6014922 26.160742,9.7253018 26.32381,9.8936243 C 26.4895,10.059319 26.688943,10.330291 26.857271,10.669568 L 27.633216,12.31845 L 26.032831,12.31845 L 25.305383,10.863554 C 25.160727,10.568987 25.067322,10.340934 24.917411,10.2331 C 24.770123,10.12527 24.485684,10.087613 24.23846,10.08761 L 23.850488,10.08761 L 23.850488,12.31845 L 22.2986,12.31845 L 22.2986,6.4503723 z M 34.471223,6.4503723 L 35.974615,6.4503723 L 35.974615,8.7297081 L 38.253951,8.7297081 L 38.253951,6.4503723 L 39.757342,6.4503723 L 39.757342,12.31845 L 38.253951,12.31845 L 38.253951,9.8451277 L 35.974615,9.8451277 L 35.974615,12.31845 L 34.471223,12.31845 L 34.471223,6.4503723 z M 23.850488,7.5172954 L 23.850488,9.0691836 L 24.480943,9.0691836 C 24.799177,9.0691867 25.023127,8.9935555 25.159894,8.8751976 C 25.299284,8.7568475 25.402372,8.5641402 25.402376,8.2932395 C 25.40237,8.024977 25.299283,7.8270088 25.159894,7.7112814 C 25.023127,7.5955633 24.799177,7.5173001 24.480943,7.5172954 L 23.850488,7.5172954 z M 18.467376,7.856771 L 17.642935,10.136107 L 19.291816,10.136107 L 18.467376,7.856771 z M 43.115245,15.858695 L 43.115245,43.658836 L 4.6827249,43.658836 L 4.6827249,15.858695 L 43.115245,15.858695 z M 17.254963,18.913975 C 13.65669,18.913975 11.580872,21.061848 11.580872,24.733555 C 11.580874,24.880423 11.556394,25.094751 11.580872,25.36401 L 14.878634,25.36401 L 14.878634,24.782052 C 14.878634,22.848286 15.785361,21.726772 17.351956,21.726772 C 18.869594,21.726772 19.776781,22.753132 19.776781,24.491073 C 19.776781,26.400361 19.182174,27.157122 15.363599,29.874185 C 12.426234,31.881385 11.509737,33.457071 11.33839,36.663696 L 23.12304,36.663696 L 23.12304,33.608416 L 15.800068,33.608416 C 16.240674,32.67825 16.794595,32.170986 19.340313,30.310654 C 22.351111,28.107629 23.220033,26.792469 23.220033,24.442576 C 23.220032,21.089084 20.902192,18.913975 17.254963,18.913975 z M 30.930978,18.913975 C 29.070647,18.913975 27.473359,19.70061 26.420803,21.144814 C 25.417201,22.491106 24.917411,24.726322 24.917411,28.079814 C 24.917411,31.139568 25.370545,33.305028 26.17832,34.626843 C 27.206398,36.266874 28.8993,37.197158 30.930978,37.197158 C 32.81579,37.197158 34.315623,36.435001 35.392657,34.966318 C 36.37178,33.644505 36.896048,31.40791 36.896048,28.176807 C 36.896048,24.994662 36.467392,22.830582 35.635139,21.484289 C 34.607061,19.819782 32.962656,18.913975 30.930978,18.913975 z M 30.930978,21.678275 C 31.81219,21.678277 32.503208,22.178986 32.919335,23.084674 C 33.262027,23.819015 33.452796,25.753941 33.452796,28.128311 C 33.452796,30.062077 33.261109,32.001597 33.016328,32.686983 C 32.624678,33.71506 31.9101,34.287367 30.930978,34.287367 C 30.025291,34.287367 29.310251,33.810675 28.894125,32.929465 C 28.551432,32.195122 28.360663,30.380751 28.360663,28.079814 C 28.360663,26.048137 28.552351,24.03702 28.797132,23.327157 C 29.188782,22.274601 29.951856,21.678275 30.930978,21.678275 z"
       id="rect2401"
       sodipodi:nodetypes="ccccccsccsssssssccsssssccccccccccccccccccccccccccssscsccccscccccccccccccccccccccsssccccccccccccscccsscccccsscccscscssccsscssscc" />
  </g>
</svg>
