<?xml version="1.0" encoding="UTF-8" standalone="no"?>
<!-- Created with Inkscape (http://www.inkscape.org/) -->
<svg
   xmlns:dc="http://purl.org/dc/elements/1.1/"
   xmlns:cc="http://creativecommons.org/ns#"
   xmlns:rdf="http://www.w3.org/1999/02/22-rdf-syntax-ns#"
   xmlns:svg="http://www.w3.org/2000/svg"
   xmlns="http://www.w3.org/2000/svg"
   xmlns:xlink="http://www.w3.org/1999/xlink"
   xmlns:sodipodi="http://sodipodi.sourceforge.net/DTD/sodipodi-0.dtd"
   xmlns:inkscape="http://www.inkscape.org/namespaces/inkscape"
   width="48px"
   height="48px"
   id="svg2562"
   sodipodi:version="0.32"
   inkscape:version="0.46"
   sodipodi:docname="cart.svg"
   inkscape:output_extension="org.inkscape.output.svg.inkscape"
   inkscape:export-filename="/home/daz/Pictures/icons/lazer/png/cart.png"
   inkscape:export-xdpi="90"
   inkscape:export-ydpi="90">
  <defs
     id="defs2564">
    <linearGradient
       inkscape:collect="always"
       id="linearGradient3967">
      <stop
         style="stop-color:#ffffff;stop-opacity:1;"
         offset="0"
         id="stop3969" />
      <stop
         style="stop-color:#ffffff;stop-opacity:0;"
         offset="1"
         id="stop3971" />
    </linearGradient>
    <linearGradient
       inkscape:collect="always"
       xlink:href="#linearGradient3967"
       id="linearGradient3973"
       x1="36.639923"
       y1="10.711333"
       x2="35.581474"
       y2="16.066296"
       gradientUnits="userSpaceOnUse" />
    <linearGradient
       inkscape:collect="always"
       xlink:href="#linearGradient3167"
       id="linearGradient3189"
       gradientUnits="userSpaceOnUse"
       x1="-10.292396"
       y1="461.78082"
       x2="-10.757737"
       y2="446.14532" />
    <linearGradient
       inkscape:collect="always"
       id="linearGradient3177">
      <stop
         style="stop-color:#00405b;stop-opacity:1"
         offset="0"
         id="stop3179" />
      <stop
         style="stop-color:#019bdb;stop-opacity:1"
         offset="1"
         id="stop3181" />
    </linearGradient>
    <linearGradient
       inkscape:collect="always"
       xlink:href="#linearGradient3177"
       id="linearGradient3187"
       gradientUnits="userSpaceOnUse"
       x1="-13.084444"
       y1="461.78082"
       x2="-13.084444"
       y2="455.85181" />
    <linearGradient
       id="linearGradient3167">
      <stop
         style="stop-color:#035b95;stop-opacity:1"
         offset="0"
         id="stop3169" />
      <stop
         style="stop-color:#62b1d7;stop-opacity:1;"
         offset="1"
         id="stop3171" />
    </linearGradient>
    <linearGradient
       inkscape:collect="always"
       xlink:href="#linearGradient3167"
       id="linearGradient3173"
       x1="-10.292396"
       y1="461.78082"
       x2="-10.757737"
       y2="446.14532"
       gradientUnits="userSpaceOnUse" />
    <linearGradient
       inkscape:collect="always"
       id="linearGradient3593">
      <stop
         style="stop-color:#3ab1d5;stop-opacity:1;"
         offset="0"
         id="stop3595" />
      <stop
         style="stop-color:#287a93;stop-opacity:1"
         offset="1"
         id="stop3597" />
    </linearGradient>
    <inkscape:perspective
       sodipodi:type="inkscape:persp3d"
       inkscape:vp_x="0 : 24 : 1"
       inkscape:vp_y="0 : 1000 : 0"
       inkscape:vp_z="48 : 24 : 1"
       inkscape:persp3d-origin="24 : 16 : 1"
       id="perspective2570" />
    <linearGradient
       inkscape:collect="always"
       xlink:href="#linearGradient3593"
       id="linearGradient3780"
       x1="-10.470651"
       y1="446.16394"
       x2="-10.374956"
       y2="461.2359"
       gradientUnits="userSpaceOnUse" />
    <linearGradient
       inkscape:collect="always"
       xlink:href="#linearGradient3177"
       id="linearGradient2520"
       gradientUnits="userSpaceOnUse"
       x1="-13.084444"
       y1="461.78082"
       x2="-13.084444"
       y2="455.85181" />
    <linearGradient
       inkscape:collect="always"
       xlink:href="#linearGradient3167"
       id="linearGradient2522"
       gradientUnits="userSpaceOnUse"
       x1="-10.292396"
       y1="461.78082"
       x2="-10.757737"
       y2="446.14532" />
  </defs>
  <sodipodi:namedview
     id="base"
     pagecolor="#ffffff"
     bordercolor="#666666"
     borderopacity="1.0"
     inkscape:pageopacity="0.0"
     inkscape:pageshadow="2"
     inkscape:zoom="7"
     inkscape:cx="-18.938318"
     inkscape:cy="24"
     inkscape:current-layer="layer1"
     showgrid="true"
     inkscape:grid-bbox="true"
     inkscape:document-units="px"
     inkscape:window-width="1270"
     inkscape:window-height="741"
     inkscape:window-x="5"
     inkscape:window-y="30" />
  <metadata
     id="metadata2567">
    <rdf:RDF>
      <cc:Work
         rdf:about="">
        <dc:format>image/svg+xml</dc:format>
        <dc:type
           rdf:resource="http://purl.org/dc/dcmitype/StillImage" />
      </cc:Work>
    </rdf:RDF>
  </metadata>
  <g
     id="layer1"
     inkscape:label="Layer 1"
     inkscape:groupmode="layer">
    <path
       style="fill:#0197fd;fill-opacity:1;stroke:none;stroke-width:2.80339788999999984;stroke-linecap:square;stroke-linejoin:round;stroke-miterlimit:4;stroke-dasharray:none;stroke-opacity:1"
       d="M 43.659035,5.1600922 C 42.230874,5.1600922 41.00857,5.9201393 40.341573,7.0440829 C 40.211549,7.2631829 40.096844,7.4962259 40.013922,7.7403409 L 37.92515,12.081711 L 3.4399266,12.081711 L 0.49107145,12.081711 L 1.6378484,14.825784 L 7.8632093,29.611016 L 8.3546851,30.839706 L 9.6652875,30.839706 L 11.590235,30.839706 L 11.221628,31.535963 C 11.005897,31.511936 10.788027,31.454051 10.566327,31.454051 C 7.3587532,31.454052 4.7505288,34.023899 4.7505288,37.146979 C 4.7505288,40.270061 7.3587558,42.839905 10.566327,42.839908 C 13.7739,42.839907 16.423082,40.270061 16.423081,37.146979 C 16.423081,35.143701 15.350043,33.37553 13.719963,32.35509 L 14.53909,30.839706 L 28.914759,30.839706 L 29.406235,31.740745 C 27.029792,32.464309 25.269647,34.60283 25.269647,37.146979 C 25.269648,40.270061 27.877874,42.839905 31.085444,42.839908 C 34.293016,42.839907 36.983156,40.270061 36.983155,37.146979 C 36.983153,34.414284 34.930286,32.114517 32.273178,31.57692 L 31.863614,30.839706 L 32.846566,30.839706 L 34.157168,30.839706 L 34.648644,29.611016 L 40.300617,16.177343 L 40.341573,16.09543 L 42.143651,12.368405 C 42.605161,12.558571 43.126634,12.655099 43.659035,12.655099 C 45.788639,12.655099 47.50893,10.960623 47.508929,8.8871178 C 47.508929,6.8136109 45.788642,5.1600922 43.659035,5.1600922 z M 6.3887817,16.013517 L 19.945325,16.013517 L 19.945325,20.150106 L 8.1499035,20.150106 L 6.3887817,16.013517 z M 22.566529,16.013517 L 36.123072,16.013517 L 34.36195,20.150106 L 22.566529,20.150106 L 22.566529,16.013517 z M 9.2557242,22.77131 L 19.945325,22.77131 L 19.945325,26.907899 L 11.016846,26.907899 L 9.2557242,22.77131 z M 22.566529,22.77131 L 33.297086,22.77131 L 31.535964,26.907899 L 22.566529,26.907899 L 22.566529,22.77131 z M 10.566327,35.344901 C 11.617963,35.344901 12.450317,36.123048 12.450317,37.146979 C 12.450319,38.170911 11.617961,38.990014 10.566327,38.990014 C 9.5146915,38.990015 8.723292,38.170911 8.723292,37.146979 C 8.723292,36.123046 9.5146935,35.344901 10.566327,35.344901 z M 31.085444,35.344901 C 32.137078,35.344901 32.969435,36.123048 32.969435,37.146979 C 32.969434,38.170911 32.137077,38.990014 31.085444,38.990014 C 30.033806,38.990015 29.24241,38.170911 29.24241,37.146979 C 29.242408,36.123046 30.03381,35.344901 31.085444,35.344901 z"
       id="path2390" />
  </g>
</svg>
