<?xml version="1.0" encoding="UTF-8" standalone="no"?>
<!-- Created with Inkscape (http://www.inkscape.org/) -->
<svg
   xmlns:dc="http://purl.org/dc/elements/1.1/"
   xmlns:cc="http://creativecommons.org/ns#"
   xmlns:rdf="http://www.w3.org/1999/02/22-rdf-syntax-ns#"
   xmlns:svg="http://www.w3.org/2000/svg"
   xmlns="http://www.w3.org/2000/svg"
   xmlns:xlink="http://www.w3.org/1999/xlink"
   xmlns:sodipodi="http://sodipodi.sourceforge.net/DTD/sodipodi-0.dtd"
   xmlns:inkscape="http://www.inkscape.org/namespaces/inkscape"
   width="48px"
   height="48px"
   id="svg3406"
   sodipodi:version="0.32"
   inkscape:version="0.46"
   sodipodi:docname="keyboard.svg"
   inkscape:output_extension="org.inkscape.output.svg.inkscape"
   inkscape:export-filename="/home/daz/Pictures/icons/lazer/png/keyboard.png"
   inkscape:export-xdpi="90"
   inkscape:export-ydpi="90">
  <defs
     id="defs3408">
    <linearGradient
       inkscape:collect="always"
       id="linearGradient3967">
      <stop
         style="stop-color:#ffffff;stop-opacity:1;"
         offset="0"
         id="stop3969" />
      <stop
         style="stop-color:#ffffff;stop-opacity:0;"
         offset="1"
         id="stop3971" />
    </linearGradient>
    <linearGradient
       inkscape:collect="always"
       xlink:href="#linearGradient3967"
       id="linearGradient3973"
       x1="36.639923"
       y1="10.711333"
       x2="35.581474"
       y2="16.066296"
       gradientUnits="userSpaceOnUse" />
    <linearGradient
       id="linearGradient3167">
      <stop
         style="stop-color:#035b95;stop-opacity:1"
         offset="0"
         id="stop3169" />
      <stop
         style="stop-color:#62b1d7;stop-opacity:1;"
         offset="1"
         id="stop3171" />
    </linearGradient>
    <linearGradient
       inkscape:collect="always"
       xlink:href="#linearGradient3167"
       id="linearGradient3189"
       gradientUnits="userSpaceOnUse"
       x1="-10.292396"
       y1="461.78082"
       x2="-10.757737"
       y2="446.14532" />
    <linearGradient
       inkscape:collect="always"
       id="linearGradient3177">
      <stop
         style="stop-color:#00405b;stop-opacity:1"
         offset="0"
         id="stop3179" />
      <stop
         style="stop-color:#019bdb;stop-opacity:1"
         offset="1"
         id="stop3181" />
    </linearGradient>
    <linearGradient
       inkscape:collect="always"
       xlink:href="#linearGradient3177"
       id="linearGradient3187"
       gradientUnits="userSpaceOnUse"
       x1="-13.084444"
       y1="461.78082"
       x2="-13.084444"
       y2="455.85181" />
    <inkscape:perspective
       sodipodi:type="inkscape:persp3d"
       inkscape:vp_x="0 : 24 : 1"
       inkscape:vp_y="0 : 1000 : 0"
       inkscape:vp_z="48 : 24 : 1"
       inkscape:persp3d-origin="24 : 16 : 1"
       id="perspective3414" />
  </defs>
  <sodipodi:namedview
     id="base"
     pagecolor="#ffffff"
     bordercolor="#666666"
     borderopacity="1.0"
     inkscape:pageopacity="0.0"
     inkscape:pageshadow="2"
     inkscape:zoom="7"
     inkscape:cx="-14.598021"
     inkscape:cy="35.428571"
     inkscape:current-layer="layer1"
     showgrid="true"
     inkscape:grid-bbox="true"
     inkscape:document-units="px"
     inkscape:window-width="1280"
     inkscape:window-height="749"
     inkscape:window-x="0"
     inkscape:window-y="26" />
  <metadata
     id="metadata3411">
    <rdf:RDF>
      <cc:Work
         rdf:about="">
        <dc:format>image/svg+xml</dc:format>
        <dc:type
           rdf:resource="http://purl.org/dc/dcmitype/StillImage" />
      </cc:Work>
    </rdf:RDF>
  </metadata>
  <g
     id="layer1"
     inkscape:label="Layer 1"
     inkscape:groupmode="layer">
    <path
       style="fill:#00e12f;fill-opacity:1;stroke:none;stroke-width:2;stroke-linecap:round;stroke-linejoin:miter;stroke-miterlimit:4;stroke-dasharray:none;stroke-opacity:1"
       d="M 0.73214322,11.210929 L 0.73214322,36.789071 L 47.267857,36.789071 L 47.267857,11.210929 L 0.73214322,11.210929 z M 4.5276093,14.841376 L 7.4567189,14.841376 C 7.8653725,14.841376 8.1993101,15.175313 8.1993101,15.583967 L 8.1993101,18.513076 C 8.1993101,18.92173 7.8653725,19.255667 7.4567189,19.255667 L 4.5276093,19.255667 C 4.1189555,19.255667 3.7850181,18.92173 3.7850181,18.513076 L 3.7850181,15.583967 C 3.7850181,15.175314 4.1189557,14.841376 4.5276093,14.841376 z M 10.674614,14.841376 L 13.603723,14.841376 C 14.012377,14.841376 14.346315,15.175313 14.346315,15.583967 L 14.346315,18.513076 C 14.346313,18.92173 14.012377,19.255667 13.603723,19.255667 L 10.674614,19.255667 C 10.265961,19.255667 9.9320228,18.92173 9.9320228,18.513076 L 9.9320228,15.583967 C 9.9320228,15.175314 10.265961,14.841376 10.674614,14.841376 z M 16.821619,14.841376 L 19.750728,14.841376 C 20.159382,14.841376 20.493319,15.175313 20.493319,15.583967 L 20.493319,18.513076 C 20.493319,18.92173 20.159382,19.255667 19.750728,19.255667 L 16.821619,19.255667 C 16.412966,19.255667 16.079027,18.92173 16.079027,18.513076 L 16.079027,15.583967 C 16.079027,15.175314 16.412965,14.841376 16.821619,14.841376 z M 22.968623,14.841376 L 25.897733,14.841376 C 26.306387,14.841376 26.640324,15.175313 26.640324,15.583967 L 26.640324,18.513076 C 26.640324,18.92173 26.306387,19.255667 25.897733,19.255667 L 22.968623,19.255667 C 22.559971,19.255667 22.226032,18.92173 22.226032,18.513076 L 22.226032,15.583967 C 22.226032,15.175314 22.55997,14.841376 22.968623,14.841376 z M 29.115628,14.841376 L 32.044738,14.841376 C 32.453391,14.841376 32.787329,15.175313 32.787329,15.583967 L 32.787329,18.513076 C 32.787329,18.92173 32.453391,19.255667 32.044738,19.255667 L 29.115628,19.255667 C 28.706976,19.255667 28.373037,18.92173 28.373037,18.513076 L 28.373037,15.583967 C 28.373037,15.175314 28.706975,14.841376 29.115628,14.841376 z M 35.262633,14.841376 L 38.191743,14.841376 C 38.600398,14.841376 38.934334,15.175313 38.934334,15.583967 L 38.934334,18.513076 C 38.934331,18.92173 38.600396,19.255667 38.191743,19.255667 L 35.262633,19.255667 C 34.853978,19.255667 34.520042,18.92173 34.520042,18.513076 L 34.520042,15.583967 C 34.520042,15.175314 34.85398,14.841376 35.262633,14.841376 z M 41.409638,14.841376 L 44.338748,14.841376 C 44.747401,14.841376 45.081339,15.175313 45.081339,15.583967 L 45.081339,18.513076 C 45.081339,18.92173 44.747401,19.255667 44.338748,19.255667 L 41.409638,19.255667 C 41.000986,19.255667 40.667047,18.92173 40.667047,18.513076 L 40.667047,15.583967 C 40.667047,15.175314 41.000984,14.841376 41.409638,14.841376 z M 6.9616582,21.937247 L 9.9320228,21.937247 C 10.340677,21.937247 10.674614,22.271184 10.674614,22.679837 L 10.674614,25.650203 C 10.674614,26.058856 10.340677,26.392793 9.9320228,26.392793 L 6.9616582,26.392793 C 6.5530046,26.392793 6.219067,26.058856 6.219067,25.650203 L 6.219067,22.679837 C 6.219067,22.271185 6.5530046,21.937247 6.9616582,21.937247 z M 13.108663,21.937247 L 16.079027,21.937247 C 16.487681,21.937247 16.821619,22.271184 16.821619,22.679837 L 16.821619,25.650203 C 16.821619,26.058856 16.487681,26.392793 16.079027,26.392793 L 13.108663,26.392793 C 12.70001,26.392793 12.366072,26.058856 12.366072,25.650203 L 12.366072,22.679837 C 12.366072,22.271185 12.70001,21.937247 13.108663,21.937247 z M 19.255667,21.937247 L 22.226032,21.937247 C 22.634686,21.937247 22.968623,22.271184 22.968623,22.679837 L 22.968623,25.650203 C 22.968623,26.058856 22.634686,26.392793 22.226032,26.392793 L 19.255667,26.392793 C 18.847015,26.392793 18.513076,26.058856 18.513076,25.650203 L 18.513076,22.679837 C 18.513076,22.271185 18.847014,21.937247 19.255667,21.937247 z M 25.402672,21.937247 L 28.373037,21.937247 C 28.781691,21.937247 29.115628,22.271184 29.115628,22.679837 L 29.115628,25.650203 C 29.115628,26.058856 28.781691,26.392793 28.373037,26.392793 L 25.402672,26.392793 C 24.99402,26.392793 24.660081,26.058856 24.660081,25.650203 L 24.660081,22.679837 C 24.660081,22.271185 24.994019,21.937247 25.402672,21.937247 z M 31.549677,21.937247 L 34.520042,21.937247 C 34.928695,21.937247 35.262633,22.271184 35.262633,22.679837 L 35.262633,25.650203 C 35.26263,26.058856 34.928695,26.392793 34.520042,26.392793 L 31.549677,26.392793 C 31.141025,26.392793 30.807086,26.058856 30.807086,25.650203 L 30.807086,22.679837 C 30.807086,22.271185 31.141024,21.937247 31.549677,21.937247 z M 37.696682,21.937247 L 43.802432,21.937247 C 44.211085,21.937247 44.545023,22.271184 44.545023,22.679837 L 44.545023,25.650203 C 44.545024,26.058856 44.211085,26.392793 43.802432,26.392793 L 37.696682,26.392793 C 37.28803,26.392793 36.954091,26.058856 36.954091,25.650203 L 36.954091,22.679837 C 36.954091,22.271185 37.288028,21.937247 37.696682,21.937247 z M 4.3213339,28.991864 L 8.3230753,28.991864 C 8.7317289,28.991864 9.0656665,29.325801 9.0656665,29.734455 L 9.0656665,32.663564 C 9.0656665,33.072218 8.7317289,33.406155 8.3230753,33.406155 L 4.3213339,33.406155 C 3.9126801,33.406155 3.5787427,33.072218 3.5787427,32.663564 L 3.5787427,29.734455 C 3.5787427,29.325802 3.9126804,28.991864 4.3213339,28.991864 z M 40.006966,28.991864 L 43.967452,28.991864 C 44.376107,28.991864 44.710043,29.325801 44.710043,29.734455 L 44.710043,32.663564 C 44.710041,33.072218 44.376106,33.406155 43.967452,33.406155 L 40.006966,33.406155 C 39.598313,33.406155 39.264374,33.072218 39.264374,32.663564 L 39.264374,29.734455 C 39.264374,29.325802 39.598312,28.991864 40.006966,28.991864 z M 11.623481,29.156884 L 36.747815,29.156884 C 37.15647,29.156884 37.490407,29.49082 37.490407,29.899475 L 37.490407,32.828585 C 37.490404,33.237237 37.156469,33.571175 36.747815,33.571175 L 11.623481,33.571175 C 11.214827,33.571175 10.88089,33.237237 10.88089,32.828585 L 10.88089,29.899475 C 10.88089,29.490822 11.214827,29.156884 11.623481,29.156884 z"
       id="rect2401" />
  </g>
</svg>
