<?xml version="1.0" encoding="UTF-8" standalone="no"?>
<!-- Created with Inkscape (http://www.inkscape.org/) -->
<svg
   xmlns:dc="http://purl.org/dc/elements/1.1/"
   xmlns:cc="http://creativecommons.org/ns#"
   xmlns:rdf="http://www.w3.org/1999/02/22-rdf-syntax-ns#"
   xmlns:svg="http://www.w3.org/2000/svg"
   xmlns="http://www.w3.org/2000/svg"
   xmlns:xlink="http://www.w3.org/1999/xlink"
   xmlns:sodipodi="http://sodipodi.sourceforge.net/DTD/sodipodi-0.dtd"
   xmlns:inkscape="http://www.inkscape.org/namespaces/inkscape"
   width="48px"
   height="48px"
   id="svg2562"
   sodipodi:version="0.32"
   inkscape:version="0.46"
   sodipodi:docname="laptop.svg"
   inkscape:output_extension="org.inkscape.output.svg.inkscape"
   inkscape:export-filename="/home/daz/Pictures/icons/lazer/png/computer.png"
   inkscape:export-xdpi="90"
   inkscape:export-ydpi="90">
  <defs
     id="defs2564">
    <linearGradient
       inkscape:collect="always"
       id="linearGradient3967">
      <stop
         style="stop-color:#ffffff;stop-opacity:1;"
         offset="0"
         id="stop3969" />
      <stop
         style="stop-color:#ffffff;stop-opacity:0;"
         offset="1"
         id="stop3971" />
    </linearGradient>
    <linearGradient
       inkscape:collect="always"
       xlink:href="#linearGradient3967"
       id="linearGradient3973"
       x1="36.639923"
       y1="10.711333"
       x2="35.581474"
       y2="16.066296"
       gradientUnits="userSpaceOnUse" />
    <linearGradient
       inkscape:collect="always"
       xlink:href="#linearGradient3167"
       id="linearGradient2786"
       gradientUnits="userSpaceOnUse"
       x1="-10.292396"
       y1="461.78082"
       x2="-10.757737"
       y2="446.14532" />
    <linearGradient
       inkscape:collect="always"
       id="linearGradient3177">
      <stop
         style="stop-color:#00405b;stop-opacity:1"
         offset="0"
         id="stop3179" />
      <stop
         style="stop-color:#019bdb;stop-opacity:1"
         offset="1"
         id="stop3181" />
    </linearGradient>
    <linearGradient
       inkscape:collect="always"
       xlink:href="#linearGradient3177"
       id="linearGradient2784"
       gradientUnits="userSpaceOnUse"
       x1="-13.084444"
       y1="461.78082"
       x2="-13.084444"
       y2="455.85181" />
    <linearGradient
       id="linearGradient3167">
      <stop
         style="stop-color:#035b95;stop-opacity:1"
         offset="0"
         id="stop3169" />
      <stop
         style="stop-color:#62b1d7;stop-opacity:1;"
         offset="1"
         id="stop3171" />
    </linearGradient>
    <linearGradient
       inkscape:collect="always"
       xlink:href="#linearGradient3167"
       id="linearGradient3173"
       x1="-10.292396"
       y1="461.78082"
       x2="-10.757737"
       y2="446.14532"
       gradientUnits="userSpaceOnUse" />
    <linearGradient
       inkscape:collect="always"
       id="linearGradient3593">
      <stop
         style="stop-color:#3ab1d5;stop-opacity:1;"
         offset="0"
         id="stop3595" />
      <stop
         style="stop-color:#287a93;stop-opacity:1"
         offset="1"
         id="stop3597" />
    </linearGradient>
    <linearGradient
       inkscape:collect="always"
       xlink:href="#linearGradient3593"
       id="linearGradient5078"
       gradientUnits="userSpaceOnUse"
       x1="-10.757737"
       y1="445.92471"
       x2="-10.757737"
       y2="462.00143" />
    <linearGradient
       inkscape:collect="always"
       xlink:href="#linearGradient3593"
       id="linearGradient4880"
       gradientUnits="userSpaceOnUse"
       x1="14.10076"
       y1="1.7549312"
       x2="13.830456"
       y2="19.159325" />
    <inkscape:perspective
       sodipodi:type="inkscape:persp3d"
       inkscape:vp_x="0 : 24 : 1"
       inkscape:vp_y="0 : 1000 : 0"
       inkscape:vp_z="48 : 24 : 1"
       inkscape:persp3d-origin="24 : 16 : 1"
       id="perspective2570" />
    <linearGradient
       inkscape:collect="always"
       xlink:href="#linearGradient3593"
       id="linearGradient3780"
       x1="-10.470651"
       y1="446.16394"
       x2="-10.374956"
       y2="461.2359"
       gradientUnits="userSpaceOnUse" />
  </defs>
  <sodipodi:namedview
     id="base"
     pagecolor="#ffffff"
     bordercolor="#666666"
     borderopacity="1.0"
     inkscape:pageopacity="0.0"
     inkscape:pageshadow="2"
     inkscape:zoom="7"
     inkscape:cx="-25.611018"
     inkscape:cy="24"
     inkscape:current-layer="layer1"
     showgrid="true"
     inkscape:grid-bbox="true"
     inkscape:document-units="px"
     inkscape:window-width="1280"
     inkscape:window-height="749"
     inkscape:window-x="0"
     inkscape:window-y="26" />
  <metadata
     id="metadata2567">
    <rdf:RDF>
      <cc:Work
         rdf:about="">
        <dc:format>image/svg+xml</dc:format>
        <dc:type
           rdf:resource="http://purl.org/dc/dcmitype/StillImage" />
      </cc:Work>
    </rdf:RDF>
  </metadata>
  <g
     id="layer1"
     inkscape:label="Layer 1"
     inkscape:groupmode="layer">
    <path
       style="fill:#fc0f22;fill-opacity:1;stroke:none;stroke-width:2;stroke-linecap:square;stroke-linejoin:miter;stroke-miterlimit:4;stroke-dasharray:none;stroke-dashoffset:0;stroke-opacity:1"
       d="M 5.28125,1 C 4.0029529,0.99999999 2.9375,1.9436466 2.9375,3.0625 L 2.9375,27.03125 C 2.9375,28.150103 4.0029542,29.093746 5.28125,29.09375 L 9.78125,29.09375 L 9.78125,30.5 L 3.3125,30.5 L 3.3125,46.375 L 44.6875,46.375 L 44.6875,30.5 L 38.21875,30.5 L 38.21875,29.09375 L 42.71875,29.09375 C 43.997048,29.09375 45.062496,28.1501 45.0625,27.03125 L 45.0625,3.0625 C 45.062501,1.9436466 43.997048,1 42.71875,1 L 5.28125,1 z M 5.9375,3.625 L 42.0625,3.625 L 42.0625,26.46875 L 5.9375,26.46875 L 5.9375,3.625 z M 10.65625,5.96875 C 10.181992,5.9687499 9.78125,6.303647 9.78125,6.71875 L 9.78125,23.375 C 9.7812501,23.790103 10.181992,24.125 10.65625,24.125 L 37.34375,24.125 C 37.818007,24.125 38.218753,23.790103 38.21875,23.375 L 38.21875,6.71875 C 38.218751,6.3036471 37.818008,5.96875 37.34375,5.96875 L 10.65625,5.96875 z M 15.781,29.09375 L 32.219,29.09375 L 32.219,30.5 L 15.781,30.5 L 15.781,29.09375 z M 6.6875,32.75 L 9.28125,32.75 C 9.6447411,32.750001 9.9375,32.965298 9.9375,33.21875 L 9.9375,35.03125 C 9.9374998,35.284703 9.6447411,35.5 9.28125,35.5 L 6.6875,35.5 C 6.3240081,35.500002 6.03125,35.284702 6.03125,35.03125 L 6.03125,33.21875 C 6.0312498,32.965299 6.324009,32.75 6.6875,32.75 z M 12.15625,32.75 L 14.75,32.75 C 15.113492,32.750001 15.40625,32.965298 15.40625,33.21875 L 15.40625,35.03125 C 15.406248,35.284703 15.113492,35.5 14.75,35.5 L 12.15625,35.5 C 11.792759,35.500002 11.5,35.284702 11.5,35.03125 L 11.5,33.21875 C 11.5,32.965299 11.792759,32.75 12.15625,32.75 z M 17.625,32.75 L 20.21875,32.75 C 20.582242,32.750001 20.875,32.965298 20.875,33.21875 L 20.875,35.03125 C 20.875,35.284703 20.582242,35.5 20.21875,35.5 L 17.625,35.5 C 17.26151,35.500002 16.96875,35.284702 16.96875,35.03125 L 16.96875,33.21875 C 16.96875,32.965299 17.261508,32.75 17.625,32.75 z M 23.09375,32.75 L 25.6875,32.75 C 26.050992,32.750001 26.34375,32.965298 26.34375,33.21875 L 26.34375,35.03125 C 26.343749,35.284703 26.050992,35.5 25.6875,35.5 L 23.09375,35.5 C 22.73026,35.500002 22.4375,35.284702 22.4375,35.03125 L 22.4375,33.21875 C 22.4375,32.965299 22.730259,32.75 23.09375,32.75 z M 28.5625,32.75 L 31.15625,32.75 C 31.51974,32.750001 31.8125,32.965298 31.8125,33.21875 L 31.8125,35.03125 C 31.812501,35.284703 31.519741,35.5 31.15625,35.5 L 28.5625,35.5 C 28.199009,35.500002 27.875,35.284702 27.875,35.03125 L 27.875,33.21875 C 27.875,32.965299 28.199009,32.75 28.5625,32.75 z M 34.03125,32.75 L 36.625,32.75 C 36.988491,32.750001 37.28125,32.965298 37.28125,33.21875 L 37.28125,35.03125 C 37.281248,35.284703 36.988491,35.5 36.625,35.5 L 34.03125,35.5 C 33.667758,35.500002 33.34375,35.284702 33.34375,35.03125 L 33.34375,33.21875 C 33.343748,32.965299 33.667759,32.75 34.03125,32.75 z M 39.5,32.75 L 42.09375,32.75 C 42.457243,32.750001 42.75,32.965298 42.75,33.21875 L 42.75,35.03125 C 42.749999,35.284703 42.457241,35.5 42.09375,35.5 L 39.5,35.5 C 39.13651,35.500002 38.8125,35.284702 38.8125,35.03125 L 38.8125,33.21875 C 38.812498,32.965299 39.136508,32.75 39.5,32.75 z M 8.84375,37.15625 L 11.5,37.15625 C 11.863492,37.156251 12.15625,37.371549 12.15625,37.625 L 12.15625,39.4375 C 12.15625,39.690952 11.863492,39.90625 11.5,39.90625 L 8.84375,39.90625 C 8.4802577,39.90625 8.1875,39.690951 8.1875,39.4375 L 8.1875,37.625 C 8.1874999,37.371549 8.4802581,37.15625 8.84375,37.15625 z M 14.3125,37.15625 L 16.96875,37.15625 C 17.332242,37.156251 17.625,37.371549 17.625,37.625 L 17.625,39.4375 C 17.625001,39.690952 17.332242,39.90625 16.96875,39.90625 L 14.3125,39.90625 C 13.949009,39.90625 13.65625,39.690951 13.65625,39.4375 L 13.65625,37.625 C 13.65625,37.371549 13.949009,37.15625 14.3125,37.15625 z M 19.78125,37.15625 L 22.4375,37.15625 C 22.800992,37.156251 23.09375,37.371549 23.09375,37.625 L 23.09375,39.4375 C 23.09375,39.690952 22.800992,39.90625 22.4375,39.90625 L 19.78125,39.90625 C 19.417759,39.90625 19.125,39.690951 19.125,39.4375 L 19.125,37.625 C 19.125,37.371549 19.417759,37.15625 19.78125,37.15625 z M 25.25,37.15625 L 27.875,37.15625 C 28.238492,37.156251 28.5625,37.371549 28.5625,37.625 L 28.5625,39.4375 C 28.562499,39.690952 28.238492,39.90625 27.875,39.90625 L 25.25,39.90625 C 24.886509,39.90625 24.59375,39.690951 24.59375,39.4375 L 24.59375,37.625 C 24.59375,37.371549 24.886509,37.15625 25.25,37.15625 z M 30.71875,37.15625 L 33.34375,37.15625 C 33.707239,37.156251 34.03125,37.371549 34.03125,37.625 L 34.03125,39.4375 C 34.031248,39.690952 33.707241,39.90625 33.34375,39.90625 L 30.71875,39.90625 C 30.355261,39.90625 30.0625,39.690951 30.0625,39.4375 L 30.0625,37.625 C 30.062499,37.371549 30.355259,37.15625 30.71875,37.15625 z M 36.1875,37.15625 L 41.625,37.15625 C 41.988491,37.156251 42.28125,37.371549 42.28125,37.625 L 42.28125,39.4375 C 42.281252,39.690952 41.988491,39.90625 41.625,39.90625 L 36.1875,39.90625 C 35.824008,39.90625 35.53125,39.690951 35.53125,39.4375 L 35.53125,37.625 C 35.53125,37.371549 35.824008,37.15625 36.1875,37.15625 z M 6.5,41.53125 L 10.0625,41.53125 C 10.425992,41.53125 10.71875,41.746548 10.71875,42 L 10.71875,43.8125 C 10.71875,44.065954 10.425992,44.25 10.0625,44.25 L 6.5,44.25 C 6.1365082,44.250001 5.84375,44.065952 5.84375,43.8125 L 5.84375,42 C 5.8437499,41.746548 6.1365081,41.53125 6.5,41.53125 z M 38.25,41.53125 L 41.75,41.53125 C 42.113493,41.53125 42.40625,41.746548 42.40625,42 L 42.40625,43.8125 C 42.406247,44.065954 42.113492,44.25 41.75,44.25 L 38.25,44.25 C 37.88651,44.250001 37.5625,44.065952 37.5625,43.8125 L 37.5625,42 C 37.562502,41.746548 37.886508,41.53125 38.25,41.53125 z M 13,41.625 L 35.34375,41.625 C 35.707243,41.625 36,41.840298 36,42.09375 L 36,43.90625 C 35.999996,44.159701 35.707242,44.375 35.34375,44.375 L 13,44.375 C 12.636509,44.375 12.34375,44.1597 12.34375,43.90625 L 12.34375,42.09375 C 12.34375,41.840298 12.636509,41.625 13,41.625 z"
       id="rect2386"
       sodipodi:nodetypes="cccccccccccccccccccccccccccccccccccccccccccccccccccccccccccccccccccccccccccccccccccccccccccccccccccccccccccccccccccccccccccccccccccccccccccccccccccccccccccccccccccccccccccccccccccc" />
  </g>
</svg>
