<?xml version="1.0" encoding="UTF-8" standalone="no"?>
<!-- Created with Inkscape (http://www.inkscape.org/) -->
<svg
   xmlns:dc="http://purl.org/dc/elements/1.1/"
   xmlns:cc="http://creativecommons.org/ns#"
   xmlns:rdf="http://www.w3.org/1999/02/22-rdf-syntax-ns#"
   xmlns:svg="http://www.w3.org/2000/svg"
   xmlns="http://www.w3.org/2000/svg"
   xmlns:xlink="http://www.w3.org/1999/xlink"
   xmlns:sodipodi="http://sodipodi.sourceforge.net/DTD/sodipodi-0.dtd"
   xmlns:inkscape="http://www.inkscape.org/namespaces/inkscape"
   width="48px"
   height="48px"
   id="svg2562"
   sodipodi:version="0.32"
   inkscape:version="0.46"
   sodipodi:docname="webcam.svg"
   inkscape:output_extension="org.inkscape.output.svg.inkscape"
   inkscape:export-filename="/home/daz/Pictures/icons/lazer/png/search.png"
   inkscape:export-xdpi="90"
   inkscape:export-ydpi="90">
  <defs
     id="defs2564">
    <linearGradient
       inkscape:collect="always"
       id="linearGradient3967">
      <stop
         style="stop-color:#ffffff;stop-opacity:1;"
         offset="0"
         id="stop3969" />
      <stop
         style="stop-color:#ffffff;stop-opacity:0;"
         offset="1"
         id="stop3971" />
    </linearGradient>
    <linearGradient
       inkscape:collect="always"
       xlink:href="#linearGradient3967"
       id="linearGradient3973"
       x1="36.639923"
       y1="10.711333"
       x2="35.581474"
       y2="16.066296"
       gradientUnits="userSpaceOnUse" />
    <linearGradient
       inkscape:collect="always"
       xlink:href="#linearGradient3167"
       id="linearGradient3189"
       gradientUnits="userSpaceOnUse"
       x1="-10.292396"
       y1="461.78082"
       x2="-10.757737"
       y2="446.14532" />
    <linearGradient
       inkscape:collect="always"
       id="linearGradient3177">
      <stop
         style="stop-color:#00405b;stop-opacity:1"
         offset="0"
         id="stop3179" />
      <stop
         style="stop-color:#019bdb;stop-opacity:1"
         offset="1"
         id="stop3181" />
    </linearGradient>
    <linearGradient
       inkscape:collect="always"
       xlink:href="#linearGradient3177"
       id="linearGradient3187"
       gradientUnits="userSpaceOnUse"
       x1="-13.084444"
       y1="461.78082"
       x2="-13.084444"
       y2="455.85181" />
    <linearGradient
       id="linearGradient3167">
      <stop
         style="stop-color:#035b95;stop-opacity:1"
         offset="0"
         id="stop3169" />
      <stop
         style="stop-color:#62b1d7;stop-opacity:1;"
         offset="1"
         id="stop3171" />
    </linearGradient>
    <linearGradient
       inkscape:collect="always"
       xlink:href="#linearGradient3167"
       id="linearGradient3173"
       x1="-10.292396"
       y1="461.78082"
       x2="-10.757737"
       y2="446.14532"
       gradientUnits="userSpaceOnUse" />
    <linearGradient
       id="linearGradient4681">
      <stop
         style="stop-color:#0066ff;stop-opacity:1;"
         offset="0"
         id="stop4683" />
      <stop
         style="stop-color:#000080;stop-opacity:1"
         offset="1"
         id="stop4685" />
    </linearGradient>
    <linearGradient
       inkscape:collect="always"
       id="linearGradient3593">
      <stop
         style="stop-color:#3ab1d5;stop-opacity:1;"
         offset="0"
         id="stop3595" />
      <stop
         style="stop-color:#287a93;stop-opacity:1"
         offset="1"
         id="stop3597" />
    </linearGradient>
    <inkscape:perspective
       sodipodi:type="inkscape:persp3d"
       inkscape:vp_x="0 : 24 : 1"
       inkscape:vp_y="0 : 1000 : 0"
       inkscape:vp_z="48 : 24 : 1"
       inkscape:persp3d-origin="24 : 16 : 1"
       id="perspective2570" />
    <linearGradient
       inkscape:collect="always"
       xlink:href="#linearGradient3593"
       id="linearGradient3780"
       x1="-10.470651"
       y1="446.16394"
       x2="-10.374956"
       y2="461.2359"
       gradientUnits="userSpaceOnUse" />
  </defs>
  <sodipodi:namedview
     id="base"
     pagecolor="#ffffff"
     bordercolor="#666666"
     borderopacity="1.0"
     inkscape:pageopacity="0.0"
     inkscape:pageshadow="2"
     inkscape:zoom="7"
     inkscape:cx="-14.033455"
     inkscape:cy="17.750128"
     inkscape:current-layer="layer1"
     showgrid="true"
     inkscape:grid-bbox="true"
     inkscape:document-units="px"
     inkscape:window-width="1270"
     inkscape:window-height="741"
     inkscape:window-x="5"
     inkscape:window-y="30" />
  <metadata
     id="metadata2567">
    <rdf:RDF>
      <cc:Work
         rdf:about="">
        <dc:format>image/svg+xml</dc:format>
        <dc:type
           rdf:resource="http://purl.org/dc/dcmitype/StillImage" />
      </cc:Work>
    </rdf:RDF>
  </metadata>
  <g
     id="layer1"
     inkscape:label="Layer 1"
     inkscape:groupmode="layer">
    <path
       style="opacity:1;fill:#00e12f;fill-opacity:1;stroke:none;stroke-width:1;stroke-linecap:round;stroke-linejoin:miter;stroke-miterlimit:4;stroke-dasharray:none;stroke-opacity:1"
       d="M 22.562501,0.67187485 C 22.285501,0.67187485 22.062501,0.89487485 22.062501,1.1718749 L 22.062501,2.1093749 C 12.785365,3.0833208 5.5312503,10.949893 5.5312503,20.484375 C 5.5312503,30.676998 13.807377,38.953124 24.000001,38.953125 C 34.192625,38.953125 42.468749,30.676999 42.46875,20.484375 C 42.468747,10.949893 35.214636,3.0833208 25.937501,2.1093749 L 25.937501,1.1718749 C 25.937501,0.89487485 25.714501,0.67187485 25.437501,0.67187485 L 22.562501,0.67187485 z M 24.000001,11.234375 C 29.119373,11.234375 33.281251,15.365003 33.281251,20.484375 C 33.281252,25.603746 29.119373,29.765625 24.000001,29.765625 C 18.880629,29.765625 14.718751,25.603747 14.718751,20.484375 C 14.718751,15.365002 18.880629,11.234375 24.000001,11.234375 z M 24.000001,12.890625 C 19.803038,12.890625 16.406251,16.287412 16.406251,20.484375 C 16.40625,24.681337 19.803038,28.078124 24.000001,28.078125 C 28.196964,28.078125 31.59375,24.681337 31.593751,20.484375 C 31.593752,16.287411 28.196964,12.890625 24.000001,12.890625 z M 24.000001,14.890625 C 27.090072,14.890624 29.593751,17.394304 29.593751,20.484375 C 29.593751,23.574445 27.090072,26.078125 24.000001,26.078125 C 20.90993,26.078124 18.406251,23.574446 18.406251,20.484375 C 18.406249,17.394303 20.90993,14.890625 24.000001,14.890625 z M 16.000001,38.265625 L 12.875001,41.984375 C 12.875001,44.936087 17.865978,47.328124 24.000001,47.328125 C 30.134024,47.328126 35.124999,44.936086 35.125001,41.984375 L 32.000001,38.265625 C 29.573589,39.438946 26.875201,40.109375 24.000001,40.109375 C 21.130511,40.109373 18.422765,39.43457 16.000001,38.265625 z"
       id="path3947" />
  </g>
</svg>
